Coordinates
version=1
nRows=26
nColumns=24
inDegrees=yes

Units are S.I. units (second, meters, Newtons, ...)
Angles are in degrees.

endheader
time	pelvis_tilt	pelvis_list	pelvis_rotation	pelvis_tx	pelvis_ty	pelvis_tz	hip_flexion_r	hip_adduction_r	hip_rotation_r	knee_angle_r	ankle_angle_r	subtalar_angle_r	mtp_angle_r	hip_flexion_l	hip_adduction_l	hip_rotation_l	knee_angle_l	ankle_angle_l	subtalar_angle_l	mtp_angle_l	lumbar_extension	lumbar_bending	lumbar_rotation
      1.17383333	     -0.18899946	      3.97504145	      0.84346121	      0.11818526	      1.00354648	      0.27668866	     21.59141779	     -2.81251076	     -1.91447062	    -70.28939358	     -3.85099569	    -17.17920720	     -3.38676323	      8.48985660	      7.97785832	      0.62857966	    -12.00761305	      3.11531351	     -6.40011325	      3.70043208	     -0.62779218	     -2.05221854	      2.00525503
      1.17800000	     -0.17015986	      3.86910743	      0.79353658	      0.12319403	      1.00432713	      0.27665718	     22.14185907	     -2.63616412	     -1.78208454	    -70.11433152	     -3.23642501	    -17.43340146	     -3.43206989	      7.91818984	      7.86440021	      0.69312260	    -11.56709324	      3.15599944	     -6.43004350	      3.68076748	     -0.67234214	     -1.92169761	      1.98513430
      1.18216667	     -0.14083993	      3.75269271	      0.74568351	      0.12820548	      1.00509928	      0.27662691	     22.65780118	     -2.45000144	     -1.65853362	    -69.86463456	     -2.62081315	    -17.66971380	     -3.47889381	      7.33477648	      7.74025305	      0.76549871	    -11.12512431	      3.19410404	     -6.46972220	      3.65834489	     -0.72740819	     -1.77916725	      1.96519004
      1.18633333	     -0.07928368	      3.64847123	      0.69570287	      0.13323661	      1.00591182	      0.27659585	     23.11255330	     -2.28031685	     -1.54079029	    -69.53537548	     -2.03739248	    -17.93537368	     -3.59386558	      6.68822057	      7.63527668	      0.89998632	    -10.62685699	      3.20322722	     -6.60502872	      3.60292577	     -0.81417504	     -1.66994713	      1.95344864
      1.19050000	     -0.09370279	      3.50359462	      0.65983814	      0.13824257	      1.00658039	      0.27657366	     23.62754369	     -2.06328205	     -1.43362244	    -69.13156905	     -1.42938169	    -18.07592936	     -3.62980108	      6.17782349	      7.47677417	      0.94112077	    -10.23124989	      3.24293571	     -6.61563749	      3.58149589	     -0.80319805	     -1.49066874	      1.92778437
      1.19466667	     -0.06484818	      3.36511343	      0.61836906	      0.14325284	      1.00728395	      0.27654860	     24.07346295	     -1.85991908	     -1.33592209	    -68.66225919	     -0.80754413	    -18.24592688	     -3.67070281	      5.60562937	      7.32813585	      1.01940430	     -9.80676833	      3.28651506	     -6.64557143	      3.55667008	     -0.85649418	     -1.31905986	      1.90229207
      1.19883333	     -0.04644963	      3.22548239	      0.58482940	      0.14825880	      1.00793017	      0.27652165	     24.50784575	     -1.65697002	     -1.24276448	    -68.12522132	     -0.20829966	    -18.40875213	     -3.71349938	      5.04914552	      7.17835312	      1.10300351	     -9.38765392	      3.32287535	     -6.70007600	      3.52984768	     -0.90373766	     -1.14087669	      1.87622966
      1.20300000	      0.02567979	      3.10543857	      0.54682328	      0.15326692	      1.00861402	      0.27649688	     24.86053468	     -1.47898050	     -1.15141561	    -67.52109510	      0.35971606	    -18.60071586	     -3.83048536	      4.40252616	      7.05713557	      1.27225961	     -8.90339169	      3.32737023	     -6.87789209	      3.46139501	     -1.01775068	     -1.00899763	      1.84455913
      1.20716667	      0.02083801	      2.95383328	      0.52724812	      0.15826157	      1.00915644	      0.27647889	     25.26904641	     -1.26724437	     -1.07570924	    -66.83961466	      0.92524398	    -18.70920155	     -3.88940572	      3.89480149	      6.89227446	      1.34686508	     -8.52802045	      3.35916938	     -6.93067181	      3.42415239	     -1.02226773	     -0.83826020	      1.81809305
      1.21133333	      0.01980235	      2.80516304	      0.50509582	      0.16325465	      1.00966094	      0.27645770	     25.65517026	     -1.06538118	     -1.00950543	    -66.10296157	      1.47919645	    -18.83788149	     -3.94326666	      3.37514051	      6.73184872	      1.43467660	     -8.13481237	      3.39855804	     -6.98676708	      3.39013259	     -1.04986025	     -0.64373658	      1.78679477
      1.21550000	      0.09823046	      2.67684841	      0.47941453	      0.16826450	      1.01022757	      0.27642701	     25.92757059	     -0.89084955	     -0.94513928	    -65.29862496	      1.97799387	    -19.00607842	     -4.08347688	      2.73384498	      6.59940393	      1.60078045	     -7.67179540	      3.40451428	     -7.16281252	      3.30818649	     -1.17076893	     -0.49187808	      1.73651453
      1.21966667	      0.11204443	      2.53854706	      0.46998307	      0.17325565	      1.01065998	      0.27639844	     26.24692629	     -0.70985462	     -0.89583883	    -64.43157325	      2.48248495	    -19.15175514	     -4.22056984	      2.19893581	      6.45223731	      1.72325377	     -7.27865932	      3.43665666	     -7.28050228	      3.22979250	     -1.20485185	     -0.32841168	      1.69472726
      1.22383333	      0.08321589	      2.39240803	      0.46715954	      0.17823295	      1.01098908	      0.27638686	     26.58878105	     -0.51917126	     -0.84991589	    -63.49857698	      2.95589674	    -19.26776785	     -4.28826461	      1.74116749	      6.29104265	      1.79488339	     -6.94532171	      3.47716397	     -7.32441279	      3.19048749	     -1.18547726	     -0.15484993	      1.66548928
      1.22800000	      0.13046525	      2.26869349	      0.45727939	      0.18322920	      1.01137000	      0.27636182	     26.82580570	     -0.36124570	     -0.81105007	    -62.51227980	      3.37008555	    -19.47344477	     -4.42515023	      1.15953192	      6.15915808	      1.93347123	     -6.53046224	      3.51202290	     -7.45629103	      3.11649536	     -1.27395409	     -0.00550709	      1.60254239
      1.23216667	      0.11888453	      2.14128799	      0.45663642	      0.18822070	      1.01162019	      0.27633551	     27.10285762	     -0.20143065	     -0.77857833	    -61.46232239	      3.73128162	    -19.65077122	     -4.74603319	      0.65200269	      6.02416835	      2.08425844	     -6.13115592	      3.46361396	     -7.65417735	      2.94791842	     -1.27880978	      0.15147520	      1.54193112
      1.23633333	      0.09483777	      2.00693045	      0.47455548	      0.19317898	      1.01179499	      0.27631134	     27.36983808	     -0.04037644	     -0.76262947	    -60.35864579	      4.14862214	    -19.78385724	     -4.81214511	      0.21443733	      5.87416337	      2.15539903	     -5.85074932	      3.58292195	     -7.65333239	      2.91604983	     -1.27788300	      0.31106272	      1.51541207
      1.24050000	      0.08930145	      1.88470734	      0.48248523	      0.19816437	      1.01194665	      0.27629521	     27.59168226	      0.10761077	     -0.74322109	    -59.19445636	      4.47713058	    -19.97457127	     -4.88902230	     -0.26503252	      5.73785402	      2.23729580	     -5.52544948	      3.65020040	     -7.68925120	      2.87990826	     -1.29503523	      0.46157109	      1.46576938
      1.24466667	      0.11158799	      1.79247810	      0.48244763	      0.20315138	      1.01207806	      0.27629350	     27.76791319	      0.22318900	     -0.72149893	    -57.98919027	      4.70261463	    -20.26398777	     -5.04403750	     -0.80401979	      5.63619652	      2.37244773	     -5.14025146	      3.69696765	     -7.81216837	      2.80869528	     -1.36320758	      0.56438000	      1.38443085
      1.24883333	      0.11770505	      1.67760289	      0.50114619	      0.20812684	      1.01215152	      0.27627268	     27.92785283	      0.35334411	     -0.72360820	    -56.71116343	      4.94068629	    -20.50414958	     -5.20400888	     -1.29373084	      5.50751638	      2.48192191	     -4.81740790	      3.74693479	     -7.91196641	      2.73667882	     -1.40084014	      0.70181052	      1.32075661
      1.25300000	      0.10842684	      1.58113547	      0.51557823	      0.21311159	      1.01213971	      0.27626553	     28.08866346	      0.46225268	     -0.72558663	    -55.39724717	      5.14416293	    -20.73189408	     -5.37461351	     -1.76818316	      5.39811729	      2.58438098	     -4.49264134	      3.80070138	     -7.99417039	      2.66161088	     -1.42583600	      0.81904031	      1.26023556
      1.25716667	      0.04805258	      1.49573816	      0.54523661	      0.21808698	      1.01200384	      0.27622893	     28.28348887	      0.54844322	     -0.74106106	    -54.03864324	      5.34374227	    -20.88635317	     -5.46884077	     -2.15207981	      5.30052141	      2.64941021	     -4.23915774	      3.86837670	     -8.03703582	      2.62183270	     -1.37480618	      0.92924868	      1.22301719
      1.26133333	      0.07269967	      1.42737700	      0.55288192	      0.22306689	      1.01194177	      0.27624041	     28.36224406	      0.63096050	     -0.73279351	    -52.62706596	      5.41632640	    -21.17632356	     -5.64269932	     -2.66841074	      5.22077448	      2.76322532	     -3.90501293	      3.93372603	     -8.12206782	      2.54937562	     -1.44721483	      1.00638817	      1.13642428
      1.26550000	      0.04193086	      1.33661169	      0.58154628	      0.22806594	      1.01176042	      0.27622487	     28.47412304	      0.71671423	     -0.77478255	    -51.16847845	      5.52227279	    -21.33323880	     -5.76586765	     -3.09225020	      5.11447267	      2.82547606	     -3.63657036	      4.00986959	     -8.17395309	      2.49828110	     -1.44360258	      1.11239595	      1.09151232
      1.26966667	      0.05692544	      1.28655690	      0.58731023	      0.23307645	      1.01158555	      0.27623890	     28.51958520	      0.77342267	     -0.77913127	    -49.67887988	      5.54083257	    -21.58358086	     -5.97583928	     -3.59471815	      5.05398739	      2.91659724	     -3.31334091	      4.07802677	     -8.25032524	      2.41039414	     -1.48259416	      1.17946975	      1.01188254
      1.27383333	      0.01227423	      1.23180141	      0.60650048	      0.23807359	      1.01128565	      0.27625198	     28.60798391	      0.83354416	     -0.78705437	    -48.15602889	      5.60222491	    -21.81223897	     -6.39909645	     -4.01158178	      4.98756224	      3.01100265	     -3.02888733	      4.10091857	     -8.35274848	      2.22462278	     -1.46741893	      1.24850411	      0.93507033
      1.27800000	     -0.04983184	      1.17814323	      0.63453015	      0.24307830	      1.01091496	      0.27623414	     28.69438871	      0.86764680	     -0.84246936	    -46.59209689	      5.56074211	    -21.79123764	     -6.49042500	     -4.37690928	      4.92192891	      3.04341404	     -2.81697512	      4.25419632	     -8.35331347	      2.18860834	     -1.42232074	      1.31620965	      0.91691405
